Coordinates
version=1
nRows=22
nColumns=24
inDegrees=yes

Units are S.I. units (second, meters, Newtons, ...)
Angles are in degrees.

endheader
time	pelvis_tilt	pelvis_list	pelvis_rotation	pelvis_tx	pelvis_ty	pelvis_tz	hip_flexion_r	hip_adduction_r	hip_rotation_r	knee_angle_r	ankle_angle_r	subtalar_angle_r	mtp_angle_r	hip_flexion_l	hip_adduction_l	hip_rotation_l	knee_angle_l	ankle_angle_l	subtalar_angle_l	mtp_angle_l	lumbar_extension	lumbar_bending	lumbar_rotation
      2.71000000	      6.54785767	     -0.28021307	     -2.88305116	      0.86495661	      1.00861067	      0.05542699	    -13.90963418	     -3.46514524	     -5.48493232	    -38.47489538	     -0.21239462	      6.77197443	     34.38980427	     12.49078882	      1.67509830	     -9.41827116	    -13.36876929	     -3.33072390	     -0.17952240	     14.69332845	    -15.14811283	      0.42518790	      4.77155049
      2.71500000	      6.59604719	     -0.29779107	     -2.84269400	      0.86994951	      1.00966814	      0.05478738	    -13.04154711	     -3.58063100	     -5.35479333	    -40.10986571	     -0.90187538	      6.27930633	     33.98862696	     12.06553038	      1.70987155	     -9.55396709	    -13.27190227	     -3.07899277	      0.10373148	     14.57531358	    -15.26486499	      0.44866469	      4.77608506
      2.72000000	      6.60673078	     -0.28257325	     -2.78749736	      0.87491119	      1.01064175	      0.05412921	    -12.11780454	     -3.72173740	     -5.24283682	    -41.76001617	     -1.23720069	      5.93428483	     31.32255850	     11.66527211	      1.78721723	     -9.62959660	    -13.14139520	     -2.66885617	      0.43779491	     13.03981735	    -15.33666044	      0.44214019	      4.74228797
      2.72500000	      6.64815664	     -0.28664488	     -2.79466608	      0.87983752	      1.01165686	      0.05361900	    -11.22206866	     -3.83336921	     -5.04428645	    -43.33228021	     -1.73190693	      5.34163155	     31.00919926	     11.21674093	      1.82432216	     -9.81823719	    -12.98761791	     -2.41485944	      0.73976717	     12.96404335	    -15.44351778	      0.43814385	      4.76937365
      2.73000000	      6.61948079	     -0.27214429	     -2.76257071	      0.88467612	      1.01251675	      0.05305849	    -10.23025997	     -3.95309625	     -4.89741925	    -44.92915619	     -1.86561453	      4.92133631	     28.35246184	     10.87078728	      1.88544925	     -9.94070697	    -12.87441243	     -2.02158291	      1.08550660	     11.46217599	    -15.47633722	      0.42622043	      4.73601771
      2.73500000	      6.66142732	     -0.24551520	     -2.79328544	      0.88953699	      1.01348322	      0.05263985	     -9.32471605	     -4.07967750	     -4.68314461	    -46.42630987	     -2.12472085	      4.27817361	     28.13642246	     10.40943600	      1.94886172	    -10.15451951	    -12.68249243	     -1.82636024	      1.38755559	     11.41875071	    -15.58151196	      0.37984261	      4.76603566
      2.74000000	      6.58947089	     -0.24239320	     -2.84386533	      0.89426795	      1.01423390	      0.05227553	     -8.26155065	     -4.15865391	     -4.40866947	    -47.92387346	     -2.29532259	      3.67339635	     27.60890435	     10.11715695	      1.97147364	    -10.37630026	    -12.58237912	     -1.50681703	      1.68275604	     11.18802592	    -15.57112393	      0.35935135	      4.77587809
      2.74500000	      6.54759378	     -0.18471462	     -2.84236792	      0.89900799	      1.01500204	      0.05183814	     -7.24845006	     -4.29393076	     -4.23044615	    -49.38625860	     -2.05839641	      3.23580478	     24.74838273	      9.77495302	      2.07155204	    -10.49367890	    -12.43741657	     -1.11040052	      2.01054477	      9.36486057	    -15.58527573	      0.29077478	      4.72852957
      2.75000000	      6.54384239	     -0.12819819	     -2.91309579	      0.90375872	      1.01582601	      0.05153411	     -6.27834170	     -4.42166254	     -3.97262087	    -50.74831190	     -2.07187393	      2.58504411	     24.60819376	      9.36729728	      2.15796466	    -10.71243164	    -12.24368540	     -0.93497431	      2.28449853	      9.34147456	    -15.63795559	      0.20325243	      4.74778380
      2.75500000	      6.43952594	     -0.08151745	     -2.99267090	      0.90837422	      1.01644513	      0.05126350	     -5.17369484	     -4.51569839	     -3.67895689	    -52.09826589	     -1.96020770	      1.97773461	     24.31830270	      9.11516209	      2.22424698	    -10.90626100	    -12.13248652	     -0.66055280	      2.49831473	      9.19104400	    -15.58968569	      0.12867798	      4.75341209
      2.76000000	      6.33242587	     -0.01199010	     -3.07204989	      0.91297393	      1.01703820	      0.05100270	     -4.07050929	     -4.62630715	     -3.39693689	    -53.38945578	     -1.76422713	      1.38806386	     23.91538932	      8.86092075	      2.31830739	    -11.07087361	    -12.00279994	     -0.43001990	      2.68123249	      8.93782929	    -15.53294899	      0.03042372	      4.75326749
      2.76500000	      6.14141788	      0.08487119	     -3.06753829	      0.91753954	      1.01746346	      0.05060874	     -2.88862473	     -4.76247019	     -3.22213443	    -54.63684585	     -1.44746774	      0.91770980	     22.78324362	      8.71781886	      2.45046359	    -11.09648633	    -11.89630348	     -0.13915455	      2.94507036	      8.12144504	    -15.38137088	     -0.07055760	      4.64604717
      2.77000000	      6.12045432	      0.18719362	     -3.22770643	      0.92214100	      1.01814175	      0.05046703	     -1.88918245	     -4.89449999	     -2.85154681	    -55.77877500	     -1.15486881	      0.38225206	     22.47440480	      8.33290432	      2.58521673	    -11.31946963	    -11.69119894	      0.05221996	      3.01664321	      7.90215533	    -15.41273825	     -0.22495769	      4.70849083
      2.77500000	      5.91803965	      0.29986453	     -3.24115476	      0.92665636	      1.01849764	      0.05011569	     -0.70405877	     -5.02803192	     -2.65165011	    -56.88951452	     -0.81252653	     -0.07776990	     21.80226204	      8.20785351	      2.73532310	    -11.32170092	    -11.58137856	      0.29966877	      3.17667527	      7.40203430	    -15.24339993	     -0.34498575	      4.60052689
      2.78000000	      5.79437179	      0.42933155	     -3.34553134	      0.93117944	      1.01894689	      0.04989847	      0.39752788	     -5.16925464	     -2.34354852	    -57.92306696	     -0.42975562	     -0.51236595	     21.29314268	      7.96516972	      2.90111904	    -11.43033965	    -11.41654139	      0.52132304	      3.28548230	      7.02280722	    -15.15783265	     -0.50725708	      4.58682188
      2.78500000	      5.70677513	      0.54465860	     -3.46645250	      0.93569969	      1.01944906	      0.04971011	      1.44189217	     -5.28206516	     -2.00942798	    -58.86228017	     -0.04644199	     -0.91839702	     21.10915705	      7.67595289	      3.05633519	    -11.53860723	    -11.23416481	      0.68330253	      3.31255076	      6.88370825	    -15.10953262	     -0.65889726	      4.60430578
      2.79000000	      5.54156188	      0.67602742	     -3.53589070	      0.94016178	      1.01979910	      0.04945019	      2.56337600	     -5.40185978	     -1.72747875	    -59.74678743	      0.34905041	     -1.28688506	     20.89413120	      7.49547622	      3.23005493	    -11.57120636	    -11.08305756	      0.86900761	      3.35080928	      6.72318677	    -14.97539637	     -0.80920898	      4.53530066
      2.79500000	      5.39136819	      0.81233177	     -3.60772669	      0.94460393	      1.02013100	      0.04918223	      3.66026264	     -5.52359097	     -1.44644217	    -60.56409705	      0.76502137	     -1.60288249	     20.70556566	      7.30186908	      3.41121875	    -11.58317355	    -10.93424556	      1.03915185	      3.39097224	      6.58239327	    -14.85683676	     -0.96349761	      4.51117865
      2.80000000	      5.23614406	      0.93822584	     -3.66077690	      0.94903725	      1.02044233	      0.04889831	      4.73937674	     -5.62240779	     -1.17630993	    -61.29435440	      1.19361661	     -1.87580184	     20.49632634	      7.11833069	      3.58381641	    -11.56956886	    -10.79371728	      1.22829200	      3.40992077	      6.42887314	    -14.73189052	     -1.10059091	      4.44570217
      2.80500000	      5.06660144	      1.05414017	     -3.67750221	      0.95349209	      1.02072180	      0.04857351	      5.80464935	     -5.70518854	     -0.94510656	    -61.93824496	      1.63506375	     -2.10332638	     20.12868791	      6.95478807	      3.74843585	    -11.52933590	    -10.66232594	      1.44893352	      3.42797693	      6.19218388	    -14.58538290	     -1.21719165	      4.33023953
      2.81000000	      4.99960956	      1.18819742	     -3.73483825	      0.95800662	      1.02115657	      0.04830090	      6.73779448	     -5.80830766	     -0.68240727	    -62.48388037	      2.03399820	     -2.31948147	     20.03752407	      6.63933722	      3.93940100	    -11.53989198	    -10.45337352	      1.58415272	      3.49596650	      6.13228938	    -14.54377121	     -1.36700293	      4.29188070
      2.81500000	      4.82854976	      1.27453682	     -3.76199822	      0.96237179	      1.02139843	      0.04798761	      7.77927881	     -5.83629516	     -0.42490839	    -62.97762861	      2.49620269	     -2.45451527	     19.85022236	      6.49507911	      4.06927398	    -11.48682361	    -10.34773083	      1.78412062	      3.50745528	      6.00710168	    -14.39988796	     -1.44759839	      4.24194712
